G04 #@! TF.FileFunction,Soldermask,Top*
%FSLAX46Y46*%
G04 Gerber Fmt 4.6, Leading zero omitted, Abs format (unit mm)*
G04 Created by KiCad (PCBNEW (2014-11-30 BZR 5308)-product) date Do 11 Dez 2014 23:36:51 CET*
%MOMM*%
G01*
G04 APERTURE LIST*
%ADD10C,0.100000*%
%ADD11C,1.676400*%
%ADD12R,1.676400X1.676400*%
G04 APERTURE END LIST*
D10*
D11*
X107950000Y-128270000D03*
X110490000Y-128270000D03*
X110490000Y-125730000D03*
X107950000Y-125730000D03*
X107950000Y-123190000D03*
X110490000Y-123190000D03*
X110490000Y-120650000D03*
X107950000Y-120650000D03*
X107950000Y-118110000D03*
X110490000Y-118110000D03*
X110490000Y-115570000D03*
X107950000Y-115570000D03*
X107950000Y-113030000D03*
X110490000Y-113030000D03*
X110490000Y-110490000D03*
X107950000Y-110490000D03*
X107950000Y-107950000D03*
X110490000Y-107950000D03*
X110490000Y-105410000D03*
X107950000Y-105410000D03*
X107950000Y-102870000D03*
X110490000Y-102870000D03*
X110490000Y-100330000D03*
X107950000Y-100330000D03*
X107950000Y-97790000D03*
X110490000Y-97790000D03*
X110490000Y-95250000D03*
X107950000Y-95250000D03*
X107950000Y-92710000D03*
X110490000Y-92710000D03*
X110490000Y-90170000D03*
X107950000Y-90170000D03*
X107950000Y-87630000D03*
X110490000Y-87630000D03*
X110490000Y-85090000D03*
X107950000Y-85090000D03*
X107950000Y-82550000D03*
X110490000Y-82550000D03*
X110490000Y-80010000D03*
D12*
X107950000Y-80010000D03*
D11*
X116840000Y-101600000D03*
X119380000Y-101600000D03*
X119380000Y-99060000D03*
X116840000Y-99060000D03*
X116840000Y-96520000D03*
X119380000Y-96520000D03*
X119380000Y-93980000D03*
X116840000Y-93980000D03*
X116840000Y-91440000D03*
X119380000Y-91440000D03*
X119380000Y-88900000D03*
X116840000Y-88900000D03*
X116840000Y-86360000D03*
X119380000Y-86360000D03*
X119380000Y-83820000D03*
X116840000Y-83820000D03*
X116840000Y-81280000D03*
X119380000Y-81280000D03*
X119380000Y-78740000D03*
D12*
X116840000Y-78740000D03*
D11*
X116840000Y-129540000D03*
X119380000Y-129540000D03*
X119380000Y-127000000D03*
X116840000Y-127000000D03*
X116840000Y-124460000D03*
X119380000Y-124460000D03*
X119380000Y-121920000D03*
X116840000Y-121920000D03*
X116840000Y-119380000D03*
X119380000Y-119380000D03*
X119380000Y-116840000D03*
X116840000Y-116840000D03*
X116840000Y-114300000D03*
X119380000Y-114300000D03*
X119380000Y-111760000D03*
X116840000Y-111760000D03*
X116840000Y-109220000D03*
X119380000Y-109220000D03*
X119380000Y-106680000D03*
D12*
X116840000Y-106680000D03*
M02*
