G04 #@! TF.FileFunction,Legend,Top*
%FSLAX46Y46*%
G04 Gerber Fmt 4.6, Leading zero omitted, Abs format (unit mm)*
G04 Created by KiCad (PCBNEW (2014-11-30 BZR 5308)-product) date Do 11 Dez 2014 23:36:51 CET*
%MOMM*%
G01*
G04 APERTURE LIST*
%ADD10C,0.100000*%
%ADD11C,0.127000*%
%ADD12C,0.076200*%
G04 APERTURE END LIST*
D10*
D11*
X106680000Y-128905000D02*
X106680000Y-127635000D01*
X107315000Y-129540000D02*
X106680000Y-128905000D01*
X111125000Y-129540000D02*
X107315000Y-129540000D01*
X111760000Y-128905000D02*
X111125000Y-129540000D01*
X111760000Y-127635000D02*
X111760000Y-128905000D01*
X111125000Y-127000000D02*
X111760000Y-127635000D01*
X106680000Y-127635000D02*
X107315000Y-127000000D01*
X106680000Y-125095000D02*
X107315000Y-124460000D01*
X111125000Y-124460000D02*
X111760000Y-125095000D01*
X111760000Y-125095000D02*
X111760000Y-126365000D01*
X111760000Y-126365000D02*
X111125000Y-127000000D01*
X111125000Y-127000000D02*
X107315000Y-127000000D01*
X107315000Y-127000000D02*
X106680000Y-126365000D01*
X106680000Y-126365000D02*
X106680000Y-125095000D01*
X106680000Y-123825000D02*
X106680000Y-122555000D01*
X107315000Y-124460000D02*
X106680000Y-123825000D01*
X111125000Y-124460000D02*
X107315000Y-124460000D01*
X111760000Y-123825000D02*
X111125000Y-124460000D01*
X111760000Y-122555000D02*
X111760000Y-123825000D01*
X111125000Y-121920000D02*
X111760000Y-122555000D01*
X106680000Y-122555000D02*
X107315000Y-121920000D01*
X106680000Y-120015000D02*
X107315000Y-119380000D01*
X111125000Y-119380000D02*
X111760000Y-120015000D01*
X111760000Y-120015000D02*
X111760000Y-121285000D01*
X111760000Y-121285000D02*
X111125000Y-121920000D01*
X111125000Y-121920000D02*
X107315000Y-121920000D01*
X107315000Y-121920000D02*
X106680000Y-121285000D01*
X106680000Y-121285000D02*
X106680000Y-120015000D01*
X106680000Y-118745000D02*
X106680000Y-117475000D01*
X107315000Y-119380000D02*
X106680000Y-118745000D01*
X111125000Y-119380000D02*
X107315000Y-119380000D01*
X111760000Y-118745000D02*
X111125000Y-119380000D01*
X111760000Y-117475000D02*
X111760000Y-118745000D01*
X111125000Y-116840000D02*
X111760000Y-117475000D01*
X106680000Y-117475000D02*
X107315000Y-116840000D01*
X106680000Y-114935000D02*
X107315000Y-114300000D01*
X111125000Y-114300000D02*
X111760000Y-114935000D01*
X111760000Y-114935000D02*
X111760000Y-116205000D01*
X111760000Y-116205000D02*
X111125000Y-116840000D01*
X111125000Y-116840000D02*
X107315000Y-116840000D01*
X107315000Y-116840000D02*
X106680000Y-116205000D01*
X106680000Y-116205000D02*
X106680000Y-114935000D01*
X106680000Y-113665000D02*
X106680000Y-112395000D01*
X107315000Y-114300000D02*
X106680000Y-113665000D01*
X111125000Y-114300000D02*
X107315000Y-114300000D01*
X111760000Y-113665000D02*
X111125000Y-114300000D01*
X111760000Y-112395000D02*
X111760000Y-113665000D01*
X111125000Y-111760000D02*
X111760000Y-112395000D01*
X106680000Y-112395000D02*
X107315000Y-111760000D01*
X106680000Y-109855000D02*
X107315000Y-109220000D01*
X111125000Y-109220000D02*
X111760000Y-109855000D01*
X111760000Y-109855000D02*
X111760000Y-111125000D01*
X111760000Y-111125000D02*
X111125000Y-111760000D01*
X111125000Y-111760000D02*
X107315000Y-111760000D01*
X107315000Y-111760000D02*
X106680000Y-111125000D01*
X106680000Y-111125000D02*
X106680000Y-109855000D01*
X106680000Y-108585000D02*
X106680000Y-107315000D01*
X107315000Y-109220000D02*
X106680000Y-108585000D01*
X111125000Y-109220000D02*
X107315000Y-109220000D01*
X111760000Y-108585000D02*
X111125000Y-109220000D01*
X111760000Y-107315000D02*
X111760000Y-108585000D01*
X111125000Y-106680000D02*
X111760000Y-107315000D01*
X106680000Y-107315000D02*
X107315000Y-106680000D01*
X106680000Y-104775000D02*
X107315000Y-104140000D01*
X111125000Y-104140000D02*
X111760000Y-104775000D01*
X111760000Y-104775000D02*
X111760000Y-106045000D01*
X111760000Y-106045000D02*
X111125000Y-106680000D01*
X111125000Y-106680000D02*
X107315000Y-106680000D01*
X107315000Y-106680000D02*
X106680000Y-106045000D01*
X106680000Y-106045000D02*
X106680000Y-104775000D01*
X106680000Y-103505000D02*
X106680000Y-102235000D01*
X107315000Y-104140000D02*
X106680000Y-103505000D01*
X111125000Y-104140000D02*
X107315000Y-104140000D01*
X111760000Y-103505000D02*
X111125000Y-104140000D01*
X111760000Y-102235000D02*
X111760000Y-103505000D01*
X111125000Y-101600000D02*
X111760000Y-102235000D01*
X106680000Y-102235000D02*
X107315000Y-101600000D01*
X106680000Y-99695000D02*
X107315000Y-99060000D01*
X111125000Y-99060000D02*
X111760000Y-99695000D01*
X111760000Y-99695000D02*
X111760000Y-100965000D01*
X111760000Y-100965000D02*
X111125000Y-101600000D01*
X111125000Y-101600000D02*
X107315000Y-101600000D01*
X107315000Y-101600000D02*
X106680000Y-100965000D01*
X106680000Y-100965000D02*
X106680000Y-99695000D01*
X106680000Y-98425000D02*
X106680000Y-97155000D01*
X107315000Y-99060000D02*
X106680000Y-98425000D01*
X111125000Y-99060000D02*
X107315000Y-99060000D01*
X111760000Y-98425000D02*
X111125000Y-99060000D01*
X111760000Y-97155000D02*
X111760000Y-98425000D01*
X111125000Y-96520000D02*
X111760000Y-97155000D01*
X106680000Y-97155000D02*
X107315000Y-96520000D01*
X106680000Y-94615000D02*
X107315000Y-93980000D01*
X111125000Y-93980000D02*
X111760000Y-94615000D01*
X111760000Y-94615000D02*
X111760000Y-95885000D01*
X111760000Y-95885000D02*
X111125000Y-96520000D01*
X111125000Y-96520000D02*
X107315000Y-96520000D01*
X107315000Y-96520000D02*
X106680000Y-95885000D01*
X106680000Y-95885000D02*
X106680000Y-94615000D01*
X106680000Y-93345000D02*
X106680000Y-92075000D01*
X107315000Y-93980000D02*
X106680000Y-93345000D01*
X111125000Y-93980000D02*
X107315000Y-93980000D01*
X111760000Y-93345000D02*
X111125000Y-93980000D01*
X111760000Y-92075000D02*
X111760000Y-93345000D01*
X111125000Y-91440000D02*
X111760000Y-92075000D01*
X106680000Y-92075000D02*
X107315000Y-91440000D01*
X106680000Y-89535000D02*
X107315000Y-88900000D01*
X111125000Y-88900000D02*
X111760000Y-89535000D01*
X111760000Y-89535000D02*
X111760000Y-90805000D01*
X111760000Y-90805000D02*
X111125000Y-91440000D01*
X111125000Y-91440000D02*
X107315000Y-91440000D01*
X107315000Y-91440000D02*
X106680000Y-90805000D01*
X106680000Y-90805000D02*
X106680000Y-89535000D01*
X106680000Y-88265000D02*
X106680000Y-86995000D01*
X107315000Y-88900000D02*
X106680000Y-88265000D01*
X111125000Y-88900000D02*
X107315000Y-88900000D01*
X111760000Y-88265000D02*
X111125000Y-88900000D01*
X111760000Y-86995000D02*
X111760000Y-88265000D01*
X111125000Y-86360000D02*
X111760000Y-86995000D01*
X106680000Y-86995000D02*
X107315000Y-86360000D01*
X106680000Y-84455000D02*
X107315000Y-83820000D01*
X111125000Y-83820000D02*
X111760000Y-84455000D01*
X111760000Y-84455000D02*
X111760000Y-85725000D01*
X111760000Y-85725000D02*
X111125000Y-86360000D01*
X111125000Y-86360000D02*
X107315000Y-86360000D01*
X107315000Y-86360000D02*
X106680000Y-85725000D01*
X106680000Y-85725000D02*
X106680000Y-84455000D01*
X106680000Y-83185000D02*
X106680000Y-81915000D01*
X107315000Y-83820000D02*
X106680000Y-83185000D01*
X111125000Y-83820000D02*
X107315000Y-83820000D01*
X111760000Y-83185000D02*
X111125000Y-83820000D01*
X111760000Y-81915000D02*
X111760000Y-83185000D01*
X111125000Y-81280000D02*
X111760000Y-81915000D01*
X106680000Y-81915000D02*
X107315000Y-81280000D01*
X106680000Y-79375000D02*
X107315000Y-78740000D01*
X107315000Y-78740000D02*
X111125000Y-78740000D01*
X111125000Y-78740000D02*
X111760000Y-79375000D01*
X111760000Y-79375000D02*
X111760000Y-80645000D01*
X111760000Y-80645000D02*
X111125000Y-81280000D01*
X111125000Y-81280000D02*
X107315000Y-81280000D01*
X107315000Y-81280000D02*
X106680000Y-80645000D01*
X106680000Y-80645000D02*
X106680000Y-79375000D01*
X106045000Y-79375000D02*
X106045000Y-80645000D01*
X115570000Y-102235000D02*
X115570000Y-100965000D01*
X116205000Y-102870000D02*
X115570000Y-102235000D01*
X120015000Y-102870000D02*
X116205000Y-102870000D01*
X120650000Y-102235000D02*
X120015000Y-102870000D01*
X120650000Y-100965000D02*
X120650000Y-102235000D01*
X120015000Y-100330000D02*
X120650000Y-100965000D01*
X115570000Y-100965000D02*
X116205000Y-100330000D01*
X115570000Y-98425000D02*
X116205000Y-97790000D01*
X120015000Y-97790000D02*
X120650000Y-98425000D01*
X120650000Y-98425000D02*
X120650000Y-99695000D01*
X120650000Y-99695000D02*
X120015000Y-100330000D01*
X120015000Y-100330000D02*
X116205000Y-100330000D01*
X116205000Y-100330000D02*
X115570000Y-99695000D01*
X115570000Y-99695000D02*
X115570000Y-98425000D01*
X115570000Y-97155000D02*
X115570000Y-95885000D01*
X116205000Y-97790000D02*
X115570000Y-97155000D01*
X120015000Y-97790000D02*
X116205000Y-97790000D01*
X120650000Y-97155000D02*
X120015000Y-97790000D01*
X120650000Y-95885000D02*
X120650000Y-97155000D01*
X120015000Y-95250000D02*
X120650000Y-95885000D01*
X115570000Y-95885000D02*
X116205000Y-95250000D01*
X115570000Y-93345000D02*
X116205000Y-92710000D01*
X120015000Y-92710000D02*
X120650000Y-93345000D01*
X120650000Y-93345000D02*
X120650000Y-94615000D01*
X120650000Y-94615000D02*
X120015000Y-95250000D01*
X120015000Y-95250000D02*
X116205000Y-95250000D01*
X116205000Y-95250000D02*
X115570000Y-94615000D01*
X115570000Y-94615000D02*
X115570000Y-93345000D01*
X115570000Y-92075000D02*
X115570000Y-90805000D01*
X116205000Y-92710000D02*
X115570000Y-92075000D01*
X120015000Y-92710000D02*
X116205000Y-92710000D01*
X120650000Y-92075000D02*
X120015000Y-92710000D01*
X120650000Y-90805000D02*
X120650000Y-92075000D01*
X120015000Y-90170000D02*
X120650000Y-90805000D01*
X115570000Y-90805000D02*
X116205000Y-90170000D01*
X115570000Y-88265000D02*
X116205000Y-87630000D01*
X120015000Y-87630000D02*
X120650000Y-88265000D01*
X120650000Y-88265000D02*
X120650000Y-89535000D01*
X120650000Y-89535000D02*
X120015000Y-90170000D01*
X120015000Y-90170000D02*
X116205000Y-90170000D01*
X116205000Y-90170000D02*
X115570000Y-89535000D01*
X115570000Y-89535000D02*
X115570000Y-88265000D01*
X115570000Y-86995000D02*
X115570000Y-85725000D01*
X116205000Y-87630000D02*
X115570000Y-86995000D01*
X120015000Y-87630000D02*
X116205000Y-87630000D01*
X120650000Y-86995000D02*
X120015000Y-87630000D01*
X120650000Y-85725000D02*
X120650000Y-86995000D01*
X120015000Y-85090000D02*
X120650000Y-85725000D01*
X115570000Y-85725000D02*
X116205000Y-85090000D01*
X115570000Y-83185000D02*
X116205000Y-82550000D01*
X120015000Y-82550000D02*
X120650000Y-83185000D01*
X120650000Y-83185000D02*
X120650000Y-84455000D01*
X120650000Y-84455000D02*
X120015000Y-85090000D01*
X120015000Y-85090000D02*
X116205000Y-85090000D01*
X116205000Y-85090000D02*
X115570000Y-84455000D01*
X115570000Y-84455000D02*
X115570000Y-83185000D01*
X115570000Y-81915000D02*
X115570000Y-80645000D01*
X116205000Y-82550000D02*
X115570000Y-81915000D01*
X120015000Y-82550000D02*
X116205000Y-82550000D01*
X120650000Y-81915000D02*
X120015000Y-82550000D01*
X120650000Y-80645000D02*
X120650000Y-81915000D01*
X120015000Y-80010000D02*
X120650000Y-80645000D01*
X115570000Y-80645000D02*
X116205000Y-80010000D01*
X115570000Y-78105000D02*
X116205000Y-77470000D01*
X116205000Y-77470000D02*
X120015000Y-77470000D01*
X120015000Y-77470000D02*
X120650000Y-78105000D01*
X120650000Y-78105000D02*
X120650000Y-79375000D01*
X120650000Y-79375000D02*
X120015000Y-80010000D01*
X120015000Y-80010000D02*
X116205000Y-80010000D01*
X116205000Y-80010000D02*
X115570000Y-79375000D01*
X115570000Y-79375000D02*
X115570000Y-78105000D01*
X114935000Y-78105000D02*
X114935000Y-79375000D01*
X115570000Y-130175000D02*
X115570000Y-128905000D01*
X116205000Y-130810000D02*
X115570000Y-130175000D01*
X120015000Y-130810000D02*
X116205000Y-130810000D01*
X120650000Y-130175000D02*
X120015000Y-130810000D01*
X120650000Y-128905000D02*
X120650000Y-130175000D01*
X120015000Y-128270000D02*
X120650000Y-128905000D01*
X115570000Y-128905000D02*
X116205000Y-128270000D01*
X115570000Y-126365000D02*
X116205000Y-125730000D01*
X120015000Y-125730000D02*
X120650000Y-126365000D01*
X120650000Y-126365000D02*
X120650000Y-127635000D01*
X120650000Y-127635000D02*
X120015000Y-128270000D01*
X120015000Y-128270000D02*
X116205000Y-128270000D01*
X116205000Y-128270000D02*
X115570000Y-127635000D01*
X115570000Y-127635000D02*
X115570000Y-126365000D01*
X115570000Y-125095000D02*
X115570000Y-123825000D01*
X116205000Y-125730000D02*
X115570000Y-125095000D01*
X120015000Y-125730000D02*
X116205000Y-125730000D01*
X120650000Y-125095000D02*
X120015000Y-125730000D01*
X120650000Y-123825000D02*
X120650000Y-125095000D01*
X120015000Y-123190000D02*
X120650000Y-123825000D01*
X115570000Y-123825000D02*
X116205000Y-123190000D01*
X115570000Y-121285000D02*
X116205000Y-120650000D01*
X120015000Y-120650000D02*
X120650000Y-121285000D01*
X120650000Y-121285000D02*
X120650000Y-122555000D01*
X120650000Y-122555000D02*
X120015000Y-123190000D01*
X120015000Y-123190000D02*
X116205000Y-123190000D01*
X116205000Y-123190000D02*
X115570000Y-122555000D01*
X115570000Y-122555000D02*
X115570000Y-121285000D01*
X115570000Y-120015000D02*
X115570000Y-118745000D01*
X116205000Y-120650000D02*
X115570000Y-120015000D01*
X120015000Y-120650000D02*
X116205000Y-120650000D01*
X120650000Y-120015000D02*
X120015000Y-120650000D01*
X120650000Y-118745000D02*
X120650000Y-120015000D01*
X120015000Y-118110000D02*
X120650000Y-118745000D01*
X115570000Y-118745000D02*
X116205000Y-118110000D01*
X115570000Y-116205000D02*
X116205000Y-115570000D01*
X120015000Y-115570000D02*
X120650000Y-116205000D01*
X120650000Y-116205000D02*
X120650000Y-117475000D01*
X120650000Y-117475000D02*
X120015000Y-118110000D01*
X120015000Y-118110000D02*
X116205000Y-118110000D01*
X116205000Y-118110000D02*
X115570000Y-117475000D01*
X115570000Y-117475000D02*
X115570000Y-116205000D01*
X115570000Y-114935000D02*
X115570000Y-113665000D01*
X116205000Y-115570000D02*
X115570000Y-114935000D01*
X120015000Y-115570000D02*
X116205000Y-115570000D01*
X120650000Y-114935000D02*
X120015000Y-115570000D01*
X120650000Y-113665000D02*
X120650000Y-114935000D01*
X120015000Y-113030000D02*
X120650000Y-113665000D01*
X115570000Y-113665000D02*
X116205000Y-113030000D01*
X115570000Y-111125000D02*
X116205000Y-110490000D01*
X120015000Y-110490000D02*
X120650000Y-111125000D01*
X120650000Y-111125000D02*
X120650000Y-112395000D01*
X120650000Y-112395000D02*
X120015000Y-113030000D01*
X120015000Y-113030000D02*
X116205000Y-113030000D01*
X116205000Y-113030000D02*
X115570000Y-112395000D01*
X115570000Y-112395000D02*
X115570000Y-111125000D01*
X115570000Y-109855000D02*
X115570000Y-108585000D01*
X116205000Y-110490000D02*
X115570000Y-109855000D01*
X120015000Y-110490000D02*
X116205000Y-110490000D01*
X120650000Y-109855000D02*
X120015000Y-110490000D01*
X120650000Y-108585000D02*
X120650000Y-109855000D01*
X120015000Y-107950000D02*
X120650000Y-108585000D01*
X115570000Y-108585000D02*
X116205000Y-107950000D01*
X115570000Y-106045000D02*
X116205000Y-105410000D01*
X116205000Y-105410000D02*
X120015000Y-105410000D01*
X120015000Y-105410000D02*
X120650000Y-106045000D01*
X120650000Y-106045000D02*
X120650000Y-107315000D01*
X120650000Y-107315000D02*
X120015000Y-107950000D01*
X120015000Y-107950000D02*
X116205000Y-107950000D01*
X116205000Y-107950000D02*
X115570000Y-107315000D01*
X115570000Y-107315000D02*
X115570000Y-106045000D01*
X114935000Y-106045000D02*
X114935000Y-107315000D01*
D12*
X105777695Y-96682076D02*
X104964895Y-96682076D01*
X105351943Y-96682076D02*
X105351943Y-96217619D01*
X105777695Y-96217619D02*
X104964895Y-96217619D01*
X105777695Y-95830571D02*
X104964895Y-95830571D01*
X104964895Y-95637047D01*
X105003600Y-95520933D01*
X105081010Y-95443524D01*
X105158419Y-95404819D01*
X105313238Y-95366114D01*
X105429352Y-95366114D01*
X105584171Y-95404819D01*
X105661581Y-95443524D01*
X105738990Y-95520933D01*
X105777695Y-95637047D01*
X105777695Y-95830571D01*
X105777695Y-94553314D02*
X105390648Y-94824247D01*
X105777695Y-95017771D02*
X104964895Y-95017771D01*
X104964895Y-94708133D01*
X105003600Y-94630724D01*
X105042305Y-94592019D01*
X105119714Y-94553314D01*
X105235829Y-94553314D01*
X105313238Y-94592019D01*
X105351943Y-94630724D01*
X105390648Y-94708133D01*
X105390648Y-95017771D01*
X104964895Y-94282381D02*
X104964895Y-93779219D01*
X105274533Y-94050152D01*
X105274533Y-93934038D01*
X105313238Y-93856628D01*
X105351943Y-93817924D01*
X105429352Y-93779219D01*
X105622876Y-93779219D01*
X105700286Y-93817924D01*
X105738990Y-93856628D01*
X105777695Y-93934038D01*
X105777695Y-94166266D01*
X105738990Y-94243676D01*
X105700286Y-94282381D01*
X105777695Y-114754781D02*
X104964895Y-114754781D01*
X104964895Y-114561257D01*
X105003600Y-114445143D01*
X105081010Y-114367734D01*
X105158419Y-114329029D01*
X105313238Y-114290324D01*
X105429352Y-114290324D01*
X105584171Y-114329029D01*
X105661581Y-114367734D01*
X105738990Y-114445143D01*
X105777695Y-114561257D01*
X105777695Y-114754781D01*
X105351943Y-113941981D02*
X105351943Y-113671048D01*
X105777695Y-113554934D02*
X105777695Y-113941981D01*
X104964895Y-113941981D01*
X104964895Y-113554934D01*
X104964895Y-113051772D02*
X104964895Y-112974363D01*
X105003600Y-112896953D01*
X105042305Y-112858248D01*
X105119714Y-112819544D01*
X105274533Y-112780839D01*
X105468057Y-112780839D01*
X105622876Y-112819544D01*
X105700286Y-112858248D01*
X105738990Y-112896953D01*
X105777695Y-112974363D01*
X105777695Y-113051772D01*
X105738990Y-113129182D01*
X105700286Y-113167886D01*
X105622876Y-113206591D01*
X105468057Y-113245296D01*
X105274533Y-113245296D01*
X105119714Y-113206591D01*
X105042305Y-113167886D01*
X105003600Y-113129182D01*
X104964895Y-113051772D01*
X105855105Y-112626020D02*
X105855105Y-112006744D01*
X105777695Y-111813220D02*
X104964895Y-111813220D01*
X105777695Y-111348763D01*
X104964895Y-111348763D01*
X105545467Y-111000420D02*
X105545467Y-110613372D01*
X105777695Y-111077829D02*
X104964895Y-110806896D01*
X105777695Y-110535963D01*
X105777695Y-110265029D02*
X104964895Y-110265029D01*
X105777695Y-109800572D01*
X104964895Y-109800572D01*
X104964895Y-109258705D02*
X104964895Y-109103886D01*
X105003600Y-109026477D01*
X105081010Y-108949067D01*
X105235829Y-108910362D01*
X105506762Y-108910362D01*
X105661581Y-108949067D01*
X105738990Y-109026477D01*
X105777695Y-109103886D01*
X105777695Y-109258705D01*
X105738990Y-109336115D01*
X105661581Y-109413524D01*
X105506762Y-109452229D01*
X105235829Y-109452229D01*
X105081010Y-109413524D01*
X105003600Y-109336115D01*
X104964895Y-109258705D01*
X105003600Y-107516991D02*
X104964895Y-107594400D01*
X104964895Y-107710515D01*
X105003600Y-107826629D01*
X105081010Y-107904038D01*
X105158419Y-107942743D01*
X105313238Y-107981448D01*
X105429352Y-107981448D01*
X105584171Y-107942743D01*
X105661581Y-107904038D01*
X105738990Y-107826629D01*
X105777695Y-107710515D01*
X105777695Y-107633105D01*
X105738990Y-107516991D01*
X105700286Y-107478286D01*
X105429352Y-107478286D01*
X105429352Y-107633105D01*
X105777695Y-107129943D02*
X104964895Y-107129943D01*
X104964895Y-106820305D01*
X105003600Y-106742896D01*
X105042305Y-106704191D01*
X105119714Y-106665486D01*
X105235829Y-106665486D01*
X105313238Y-106704191D01*
X105351943Y-106742896D01*
X105390648Y-106820305D01*
X105390648Y-107129943D01*
X105777695Y-106317143D02*
X104964895Y-106317143D01*
X104964895Y-105775276D02*
X104964895Y-105620457D01*
X105003600Y-105543048D01*
X105081010Y-105465638D01*
X105235829Y-105426933D01*
X105506762Y-105426933D01*
X105661581Y-105465638D01*
X105738990Y-105543048D01*
X105777695Y-105620457D01*
X105777695Y-105775276D01*
X105738990Y-105852686D01*
X105661581Y-105930095D01*
X105506762Y-105968800D01*
X105235829Y-105968800D01*
X105081010Y-105930095D01*
X105003600Y-105852686D01*
X104964895Y-105775276D01*
X105468057Y-105078590D02*
X105468057Y-104459314D01*
X104964895Y-103917447D02*
X104964895Y-103840038D01*
X105003600Y-103762628D01*
X105042305Y-103723923D01*
X105119714Y-103685219D01*
X105274533Y-103646514D01*
X105468057Y-103646514D01*
X105622876Y-103685219D01*
X105700286Y-103723923D01*
X105738990Y-103762628D01*
X105777695Y-103840038D01*
X105777695Y-103917447D01*
X105738990Y-103994857D01*
X105700286Y-104033561D01*
X105622876Y-104072266D01*
X105468057Y-104110971D01*
X105274533Y-104110971D01*
X105119714Y-104072266D01*
X105042305Y-104033561D01*
X105003600Y-103994857D01*
X104964895Y-103917447D01*
X122414695Y-100619076D02*
X121601895Y-100619076D01*
X121988943Y-100619076D02*
X121988943Y-100154619D01*
X122414695Y-100154619D02*
X121601895Y-100154619D01*
X122414695Y-99767571D02*
X121601895Y-99767571D01*
X121601895Y-99574047D01*
X121640600Y-99457933D01*
X121718010Y-99380524D01*
X121795419Y-99341819D01*
X121950238Y-99303114D01*
X122066352Y-99303114D01*
X122221171Y-99341819D01*
X122298581Y-99380524D01*
X122375990Y-99457933D01*
X122414695Y-99574047D01*
X122414695Y-99767571D01*
X122414695Y-98490314D02*
X122027648Y-98761247D01*
X122414695Y-98954771D02*
X121601895Y-98954771D01*
X121601895Y-98645133D01*
X121640600Y-98567724D01*
X121679305Y-98529019D01*
X121756714Y-98490314D01*
X121872829Y-98490314D01*
X121950238Y-98529019D01*
X121988943Y-98567724D01*
X122027648Y-98645133D01*
X122027648Y-98954771D01*
X122414695Y-97716219D02*
X122414695Y-98180676D01*
X122414695Y-97948447D02*
X121601895Y-97948447D01*
X121718010Y-98025857D01*
X121795419Y-98103266D01*
X121834124Y-98180676D01*
X121474895Y-89915999D02*
X122287695Y-89722475D01*
X121707124Y-89567656D01*
X122287695Y-89412837D01*
X121474895Y-89219313D01*
X122287695Y-88561332D02*
X121861943Y-88561332D01*
X121784533Y-88600037D01*
X121745829Y-88677447D01*
X121745829Y-88832266D01*
X121784533Y-88909675D01*
X122248990Y-88561332D02*
X122287695Y-88638742D01*
X122287695Y-88832266D01*
X122248990Y-88909675D01*
X122171581Y-88948380D01*
X122094171Y-88948380D01*
X122016762Y-88909675D01*
X121978057Y-88832266D01*
X121978057Y-88638742D01*
X121939352Y-88561332D01*
X121745829Y-88251695D02*
X122287695Y-88058171D01*
X121745829Y-87864647D01*
X122248990Y-87245371D02*
X122287695Y-87322781D01*
X122287695Y-87477600D01*
X122248990Y-87555009D01*
X122171581Y-87593714D01*
X121861943Y-87593714D01*
X121784533Y-87555009D01*
X121745829Y-87477600D01*
X121745829Y-87322781D01*
X121784533Y-87245371D01*
X121861943Y-87206666D01*
X121939352Y-87206666D01*
X122016762Y-87593714D01*
X122248990Y-86897028D02*
X122287695Y-86819618D01*
X122287695Y-86664799D01*
X122248990Y-86587390D01*
X122171581Y-86548685D01*
X122132876Y-86548685D01*
X122055467Y-86587390D01*
X122016762Y-86664799D01*
X122016762Y-86780914D01*
X121978057Y-86858323D01*
X121900648Y-86897028D01*
X121861943Y-86897028D01*
X121784533Y-86858323D01*
X121745829Y-86780914D01*
X121745829Y-86664799D01*
X121784533Y-86587390D01*
X122287695Y-86200342D02*
X121474895Y-86200342D01*
X122287695Y-85851999D02*
X121861943Y-85851999D01*
X121784533Y-85890704D01*
X121745829Y-85968114D01*
X121745829Y-86084228D01*
X121784533Y-86161637D01*
X121823238Y-86200342D01*
X122287695Y-85116609D02*
X121861943Y-85116609D01*
X121784533Y-85155314D01*
X121745829Y-85232724D01*
X121745829Y-85387543D01*
X121784533Y-85464952D01*
X122248990Y-85116609D02*
X122287695Y-85194019D01*
X122287695Y-85387543D01*
X122248990Y-85464952D01*
X122171581Y-85503657D01*
X122094171Y-85503657D01*
X122016762Y-85464952D01*
X121978057Y-85387543D01*
X121978057Y-85194019D01*
X121939352Y-85116609D01*
X122287695Y-84729562D02*
X121745829Y-84729562D01*
X121900648Y-84729562D02*
X121823238Y-84690857D01*
X121784533Y-84652153D01*
X121745829Y-84574743D01*
X121745829Y-84497334D01*
X122248990Y-83916762D02*
X122287695Y-83994172D01*
X122287695Y-84148991D01*
X122248990Y-84226400D01*
X122171581Y-84265105D01*
X121861943Y-84265105D01*
X121784533Y-84226400D01*
X121745829Y-84148991D01*
X121745829Y-83994172D01*
X121784533Y-83916762D01*
X121861943Y-83878057D01*
X121939352Y-83878057D01*
X122016762Y-84265105D01*
X122287695Y-82910438D02*
X121474895Y-82910438D01*
X121474895Y-82716914D01*
X121513600Y-82600800D01*
X121591010Y-82523391D01*
X121668419Y-82484686D01*
X121823238Y-82445981D01*
X121939352Y-82445981D01*
X122094171Y-82484686D01*
X122171581Y-82523391D01*
X122248990Y-82600800D01*
X122287695Y-82716914D01*
X122287695Y-82910438D01*
X122287695Y-82097638D02*
X121474895Y-82097638D01*
X121474895Y-81788000D01*
X121513600Y-81710591D01*
X121552305Y-81671886D01*
X121629714Y-81633181D01*
X121745829Y-81633181D01*
X121823238Y-81671886D01*
X121861943Y-81710591D01*
X121900648Y-81788000D01*
X121900648Y-82097638D01*
X121823238Y-81168724D02*
X121784533Y-81246133D01*
X121745829Y-81284838D01*
X121668419Y-81323543D01*
X121629714Y-81323543D01*
X121552305Y-81284838D01*
X121513600Y-81246133D01*
X121474895Y-81168724D01*
X121474895Y-81013905D01*
X121513600Y-80936495D01*
X121552305Y-80897791D01*
X121629714Y-80859086D01*
X121668419Y-80859086D01*
X121745829Y-80897791D01*
X121784533Y-80936495D01*
X121823238Y-81013905D01*
X121823238Y-81168724D01*
X121861943Y-81246133D01*
X121900648Y-81284838D01*
X121978057Y-81323543D01*
X122132876Y-81323543D01*
X122210286Y-81284838D01*
X122248990Y-81246133D01*
X122287695Y-81168724D01*
X122287695Y-81013905D01*
X122248990Y-80936495D01*
X122210286Y-80897791D01*
X122132876Y-80859086D01*
X121978057Y-80859086D01*
X121900648Y-80897791D01*
X121861943Y-80936495D01*
X121823238Y-81013905D01*
X121474895Y-80588153D02*
X121474895Y-80084991D01*
X121784533Y-80355924D01*
X121784533Y-80239810D01*
X121823238Y-80162400D01*
X121861943Y-80123696D01*
X121939352Y-80084991D01*
X122132876Y-80084991D01*
X122210286Y-80123696D01*
X122248990Y-80162400D01*
X122287695Y-80239810D01*
X122287695Y-80472038D01*
X122248990Y-80549448D01*
X122210286Y-80588153D01*
X121823238Y-79620534D02*
X121784533Y-79697943D01*
X121745829Y-79736648D01*
X121668419Y-79775353D01*
X121629714Y-79775353D01*
X121552305Y-79736648D01*
X121513600Y-79697943D01*
X121474895Y-79620534D01*
X121474895Y-79465715D01*
X121513600Y-79388305D01*
X121552305Y-79349601D01*
X121629714Y-79310896D01*
X121668419Y-79310896D01*
X121745829Y-79349601D01*
X121784533Y-79388305D01*
X121823238Y-79465715D01*
X121823238Y-79620534D01*
X121861943Y-79697943D01*
X121900648Y-79736648D01*
X121978057Y-79775353D01*
X122132876Y-79775353D01*
X122210286Y-79736648D01*
X122248990Y-79697943D01*
X122287695Y-79620534D01*
X122287695Y-79465715D01*
X122248990Y-79388305D01*
X122210286Y-79349601D01*
X122132876Y-79310896D01*
X121978057Y-79310896D01*
X121900648Y-79349601D01*
X121861943Y-79388305D01*
X121823238Y-79465715D01*
X121745829Y-78614210D02*
X122287695Y-78614210D01*
X121436190Y-78807734D02*
X122016762Y-79001258D01*
X122016762Y-78498096D01*
X121823238Y-78072344D02*
X121784533Y-78149753D01*
X121745829Y-78188458D01*
X121668419Y-78227163D01*
X121629714Y-78227163D01*
X121552305Y-78188458D01*
X121513600Y-78149753D01*
X121474895Y-78072344D01*
X121474895Y-77917525D01*
X121513600Y-77840115D01*
X121552305Y-77801411D01*
X121629714Y-77762706D01*
X121668419Y-77762706D01*
X121745829Y-77801411D01*
X121784533Y-77840115D01*
X121823238Y-77917525D01*
X121823238Y-78072344D01*
X121861943Y-78149753D01*
X121900648Y-78188458D01*
X121978057Y-78227163D01*
X122132876Y-78227163D01*
X122210286Y-78188458D01*
X122248990Y-78149753D01*
X122287695Y-78072344D01*
X122287695Y-77917525D01*
X122248990Y-77840115D01*
X122210286Y-77801411D01*
X122132876Y-77762706D01*
X121978057Y-77762706D01*
X121900648Y-77801411D01*
X121861943Y-77840115D01*
X121823238Y-77917525D01*
X122287695Y-129702076D02*
X121474895Y-129702076D01*
X121861943Y-129702076D02*
X121861943Y-129237619D01*
X122287695Y-129237619D02*
X121474895Y-129237619D01*
X122287695Y-128850571D02*
X121474895Y-128850571D01*
X121474895Y-128657047D01*
X121513600Y-128540933D01*
X121591010Y-128463524D01*
X121668419Y-128424819D01*
X121823238Y-128386114D01*
X121939352Y-128386114D01*
X122094171Y-128424819D01*
X122171581Y-128463524D01*
X122248990Y-128540933D01*
X122287695Y-128657047D01*
X122287695Y-128850571D01*
X122287695Y-127573314D02*
X121900648Y-127844247D01*
X122287695Y-128037771D02*
X121474895Y-128037771D01*
X121474895Y-127728133D01*
X121513600Y-127650724D01*
X121552305Y-127612019D01*
X121629714Y-127573314D01*
X121745829Y-127573314D01*
X121823238Y-127612019D01*
X121861943Y-127650724D01*
X121900648Y-127728133D01*
X121900648Y-128037771D01*
X121552305Y-127263676D02*
X121513600Y-127224971D01*
X121474895Y-127147562D01*
X121474895Y-126954038D01*
X121513600Y-126876628D01*
X121552305Y-126837924D01*
X121629714Y-126799219D01*
X121707124Y-126799219D01*
X121823238Y-126837924D01*
X122287695Y-127302381D01*
X122287695Y-126799219D01*
X121474895Y-117855999D02*
X122287695Y-117662475D01*
X121707124Y-117507656D01*
X122287695Y-117352837D01*
X121474895Y-117159313D01*
X122287695Y-116501332D02*
X121861943Y-116501332D01*
X121784533Y-116540037D01*
X121745829Y-116617447D01*
X121745829Y-116772266D01*
X121784533Y-116849675D01*
X122248990Y-116501332D02*
X122287695Y-116578742D01*
X122287695Y-116772266D01*
X122248990Y-116849675D01*
X122171581Y-116888380D01*
X122094171Y-116888380D01*
X122016762Y-116849675D01*
X121978057Y-116772266D01*
X121978057Y-116578742D01*
X121939352Y-116501332D01*
X121745829Y-116191695D02*
X122287695Y-115998171D01*
X121745829Y-115804647D01*
X122248990Y-115185371D02*
X122287695Y-115262781D01*
X122287695Y-115417600D01*
X122248990Y-115495009D01*
X122171581Y-115533714D01*
X121861943Y-115533714D01*
X121784533Y-115495009D01*
X121745829Y-115417600D01*
X121745829Y-115262781D01*
X121784533Y-115185371D01*
X121861943Y-115146666D01*
X121939352Y-115146666D01*
X122016762Y-115533714D01*
X122248990Y-114837028D02*
X122287695Y-114759618D01*
X122287695Y-114604799D01*
X122248990Y-114527390D01*
X122171581Y-114488685D01*
X122132876Y-114488685D01*
X122055467Y-114527390D01*
X122016762Y-114604799D01*
X122016762Y-114720914D01*
X121978057Y-114798323D01*
X121900648Y-114837028D01*
X121861943Y-114837028D01*
X121784533Y-114798323D01*
X121745829Y-114720914D01*
X121745829Y-114604799D01*
X121784533Y-114527390D01*
X122287695Y-114140342D02*
X121474895Y-114140342D01*
X122287695Y-113791999D02*
X121861943Y-113791999D01*
X121784533Y-113830704D01*
X121745829Y-113908114D01*
X121745829Y-114024228D01*
X121784533Y-114101637D01*
X121823238Y-114140342D01*
X122287695Y-113056609D02*
X121861943Y-113056609D01*
X121784533Y-113095314D01*
X121745829Y-113172724D01*
X121745829Y-113327543D01*
X121784533Y-113404952D01*
X122248990Y-113056609D02*
X122287695Y-113134019D01*
X122287695Y-113327543D01*
X122248990Y-113404952D01*
X122171581Y-113443657D01*
X122094171Y-113443657D01*
X122016762Y-113404952D01*
X121978057Y-113327543D01*
X121978057Y-113134019D01*
X121939352Y-113056609D01*
X122287695Y-112669562D02*
X121745829Y-112669562D01*
X121900648Y-112669562D02*
X121823238Y-112630857D01*
X121784533Y-112592153D01*
X121745829Y-112514743D01*
X121745829Y-112437334D01*
X122248990Y-111856762D02*
X122287695Y-111934172D01*
X122287695Y-112088991D01*
X122248990Y-112166400D01*
X122171581Y-112205105D01*
X121861943Y-112205105D01*
X121784533Y-112166400D01*
X121745829Y-112088991D01*
X121745829Y-111934172D01*
X121784533Y-111856762D01*
X121861943Y-111818057D01*
X121939352Y-111818057D01*
X122016762Y-112205105D01*
X122287695Y-110850438D02*
X121474895Y-110850438D01*
X121474895Y-110656914D01*
X121513600Y-110540800D01*
X121591010Y-110463391D01*
X121668419Y-110424686D01*
X121823238Y-110385981D01*
X121939352Y-110385981D01*
X122094171Y-110424686D01*
X122171581Y-110463391D01*
X122248990Y-110540800D01*
X122287695Y-110656914D01*
X122287695Y-110850438D01*
X122287695Y-110037638D02*
X121474895Y-110037638D01*
X121474895Y-109728000D01*
X121513600Y-109650591D01*
X121552305Y-109611886D01*
X121629714Y-109573181D01*
X121745829Y-109573181D01*
X121823238Y-109611886D01*
X121861943Y-109650591D01*
X121900648Y-109728000D01*
X121900648Y-110037638D01*
X121823238Y-109108724D02*
X121784533Y-109186133D01*
X121745829Y-109224838D01*
X121668419Y-109263543D01*
X121629714Y-109263543D01*
X121552305Y-109224838D01*
X121513600Y-109186133D01*
X121474895Y-109108724D01*
X121474895Y-108953905D01*
X121513600Y-108876495D01*
X121552305Y-108837791D01*
X121629714Y-108799086D01*
X121668419Y-108799086D01*
X121745829Y-108837791D01*
X121784533Y-108876495D01*
X121823238Y-108953905D01*
X121823238Y-109108724D01*
X121861943Y-109186133D01*
X121900648Y-109224838D01*
X121978057Y-109263543D01*
X122132876Y-109263543D01*
X122210286Y-109224838D01*
X122248990Y-109186133D01*
X122287695Y-109108724D01*
X122287695Y-108953905D01*
X122248990Y-108876495D01*
X122210286Y-108837791D01*
X122132876Y-108799086D01*
X121978057Y-108799086D01*
X121900648Y-108837791D01*
X121861943Y-108876495D01*
X121823238Y-108953905D01*
X121474895Y-108528153D02*
X121474895Y-108024991D01*
X121784533Y-108295924D01*
X121784533Y-108179810D01*
X121823238Y-108102400D01*
X121861943Y-108063696D01*
X121939352Y-108024991D01*
X122132876Y-108024991D01*
X122210286Y-108063696D01*
X122248990Y-108102400D01*
X122287695Y-108179810D01*
X122287695Y-108412038D01*
X122248990Y-108489448D01*
X122210286Y-108528153D01*
X121823238Y-107560534D02*
X121784533Y-107637943D01*
X121745829Y-107676648D01*
X121668419Y-107715353D01*
X121629714Y-107715353D01*
X121552305Y-107676648D01*
X121513600Y-107637943D01*
X121474895Y-107560534D01*
X121474895Y-107405715D01*
X121513600Y-107328305D01*
X121552305Y-107289601D01*
X121629714Y-107250896D01*
X121668419Y-107250896D01*
X121745829Y-107289601D01*
X121784533Y-107328305D01*
X121823238Y-107405715D01*
X121823238Y-107560534D01*
X121861943Y-107637943D01*
X121900648Y-107676648D01*
X121978057Y-107715353D01*
X122132876Y-107715353D01*
X122210286Y-107676648D01*
X122248990Y-107637943D01*
X122287695Y-107560534D01*
X122287695Y-107405715D01*
X122248990Y-107328305D01*
X122210286Y-107289601D01*
X122132876Y-107250896D01*
X121978057Y-107250896D01*
X121900648Y-107289601D01*
X121861943Y-107328305D01*
X121823238Y-107405715D01*
X121745829Y-106554210D02*
X122287695Y-106554210D01*
X121436190Y-106747734D02*
X122016762Y-106941258D01*
X122016762Y-106438096D01*
X121823238Y-106012344D02*
X121784533Y-106089753D01*
X121745829Y-106128458D01*
X121668419Y-106167163D01*
X121629714Y-106167163D01*
X121552305Y-106128458D01*
X121513600Y-106089753D01*
X121474895Y-106012344D01*
X121474895Y-105857525D01*
X121513600Y-105780115D01*
X121552305Y-105741411D01*
X121629714Y-105702706D01*
X121668419Y-105702706D01*
X121745829Y-105741411D01*
X121784533Y-105780115D01*
X121823238Y-105857525D01*
X121823238Y-106012344D01*
X121861943Y-106089753D01*
X121900648Y-106128458D01*
X121978057Y-106167163D01*
X122132876Y-106167163D01*
X122210286Y-106128458D01*
X122248990Y-106089753D01*
X122287695Y-106012344D01*
X122287695Y-105857525D01*
X122248990Y-105780115D01*
X122210286Y-105741411D01*
X122132876Y-105702706D01*
X121978057Y-105702706D01*
X121900648Y-105741411D01*
X121861943Y-105780115D01*
X121823238Y-105857525D01*
M02*
