M48
INCH,TZ
T1C0.040
%
G90
G05
T1
X42500Y-31500
X42500Y-32500
X42500Y-33500
X42500Y-34500
X42500Y-35500
X42500Y-36500
X42500Y-37500
X42500Y-38500
X42500Y-39500
X42500Y-40500
X42500Y-41500
X42500Y-42500
X42500Y-43500
X42500Y-44500
X42500Y-45500
X42500Y-46500
X42500Y-47500
X42500Y-48500
X42500Y-49500
X42500Y-50500
X43500Y-31500
X43500Y-32500
X43500Y-33500
X43500Y-34500
X43500Y-35500
X43500Y-36500
X43500Y-37500
X43500Y-38500
X43500Y-39500
X43500Y-40500
X43500Y-41500
X43500Y-42500
X43500Y-43500
X43500Y-44500
X43500Y-45500
X43500Y-46500
X43500Y-47500
X43500Y-48500
X43500Y-49500
X43500Y-50500
X46000Y-31000
X46000Y-32000
X46000Y-33000
X46000Y-34000
X46000Y-35000
X46000Y-36000
X46000Y-37000
X46000Y-38000
X46000Y-39000
X46000Y-40000
X46000Y-42000
X46000Y-43000
X46000Y-44000
X46000Y-45000
X46000Y-46000
X46000Y-47000
X46000Y-48000
X46000Y-49000
X46000Y-50000
X46000Y-51000
X47000Y-31000
X47000Y-32000
X47000Y-33000
X47000Y-34000
X47000Y-35000
X47000Y-36000
X47000Y-37000
X47000Y-38000
X47000Y-39000
X47000Y-40000
X47000Y-42000
X47000Y-43000
X47000Y-44000
X47000Y-45000
X47000Y-46000
X47000Y-47000
X47000Y-48000
X47000Y-49000
X47000Y-50000
X47000Y-51000
T0
M30
