G04 #@! TF.FileFunction,Copper,L2,Bot,Signal*
%FSLAX46Y46*%
G04 Gerber Fmt 4.6, Leading zero omitted, Abs format (unit mm)*
G04 Created by KiCad (PCBNEW (2014-11-30 BZR 5308)-product) date Fr 12 Dez 2014 00:24:21 CET*
%MOMM*%
G01*
G04 APERTURE LIST*
%ADD10C,0.100000*%
%ADD11C,1.676400*%
%ADD12R,1.676400X1.676400*%
%ADD13C,0.254000*%
G04 APERTURE END LIST*
D10*
D11*
X107950000Y-128270000D03*
X110490000Y-128270000D03*
X110490000Y-125730000D03*
X107950000Y-125730000D03*
X107950000Y-123190000D03*
X110490000Y-123190000D03*
X110490000Y-120650000D03*
X107950000Y-120650000D03*
X107950000Y-118110000D03*
X110490000Y-118110000D03*
X110490000Y-115570000D03*
X107950000Y-115570000D03*
X107950000Y-113030000D03*
X110490000Y-113030000D03*
X110490000Y-110490000D03*
X107950000Y-110490000D03*
X107950000Y-107950000D03*
X110490000Y-107950000D03*
X110490000Y-105410000D03*
X107950000Y-105410000D03*
X107950000Y-102870000D03*
X110490000Y-102870000D03*
X110490000Y-100330000D03*
X107950000Y-100330000D03*
X107950000Y-97790000D03*
X110490000Y-97790000D03*
X110490000Y-95250000D03*
X107950000Y-95250000D03*
X107950000Y-92710000D03*
X110490000Y-92710000D03*
X110490000Y-90170000D03*
X107950000Y-90170000D03*
X107950000Y-87630000D03*
X110490000Y-87630000D03*
X110490000Y-85090000D03*
X107950000Y-85090000D03*
X107950000Y-82550000D03*
X110490000Y-82550000D03*
X110490000Y-80010000D03*
D12*
X107950000Y-80010000D03*
D11*
X116840000Y-101600000D03*
X119380000Y-101600000D03*
X119380000Y-99060000D03*
X116840000Y-99060000D03*
X116840000Y-96520000D03*
X119380000Y-96520000D03*
X119380000Y-93980000D03*
X116840000Y-93980000D03*
X116840000Y-91440000D03*
X119380000Y-91440000D03*
X119380000Y-88900000D03*
X116840000Y-88900000D03*
X116840000Y-86360000D03*
X119380000Y-86360000D03*
X119380000Y-83820000D03*
X116840000Y-83820000D03*
X116840000Y-81280000D03*
X119380000Y-81280000D03*
X119380000Y-78740000D03*
D12*
X116840000Y-78740000D03*
D11*
X116840000Y-129540000D03*
X119380000Y-129540000D03*
X119380000Y-127000000D03*
X116840000Y-127000000D03*
X116840000Y-124460000D03*
X119380000Y-124460000D03*
X119380000Y-121920000D03*
X116840000Y-121920000D03*
X116840000Y-119380000D03*
X119380000Y-119380000D03*
X119380000Y-116840000D03*
X116840000Y-116840000D03*
X116840000Y-114300000D03*
X119380000Y-114300000D03*
X119380000Y-111760000D03*
X116840000Y-111760000D03*
X116840000Y-109220000D03*
X119380000Y-109220000D03*
X119380000Y-106680000D03*
D12*
X116840000Y-106680000D03*
D13*
X110490000Y-115570000D02*
X116840000Y-109220000D01*
X110973619Y-114350799D02*
X114300000Y-111024418D01*
X109169201Y-114350799D02*
X110973619Y-114350799D01*
X107950000Y-115570000D02*
X109169201Y-114350799D01*
X115747800Y-106680000D02*
X116840000Y-106680000D01*
X114300000Y-108127800D02*
X115747800Y-106680000D01*
X114300000Y-111024418D02*
X114300000Y-108127800D01*
X107950000Y-115570000D02*
X106680000Y-114300000D01*
X115747800Y-78740000D02*
X116840000Y-78740000D01*
X106857798Y-78740000D02*
X115747800Y-78740000D01*
X106680000Y-78917798D02*
X106857798Y-78740000D01*
X106680000Y-114300000D02*
X106680000Y-78917798D01*
X116840000Y-78740000D02*
X118110000Y-77470000D01*
X118110000Y-77470000D02*
X120650000Y-77470000D01*
X120650000Y-105410000D02*
X119380000Y-106680000D01*
X120650000Y-77470000D02*
X120650000Y-105410000D01*
X116840000Y-78740000D02*
X119380000Y-78740000D01*
X109220000Y-91440000D02*
X116840000Y-91440000D01*
X107950000Y-90170000D02*
X109220000Y-91440000D01*
X118110000Y-90170000D02*
X119380000Y-91440000D01*
X110490000Y-90170000D02*
X118110000Y-90170000D01*
X118110000Y-87630000D02*
X119380000Y-88900000D01*
X110490000Y-87630000D02*
X118110000Y-87630000D01*
X109220000Y-88900000D02*
X116840000Y-88900000D01*
X107950000Y-87630000D02*
X109220000Y-88900000D01*
X118110000Y-85090000D02*
X119380000Y-86360000D01*
X110490000Y-85090000D02*
X118110000Y-85090000D01*
X118110000Y-82550000D02*
X119380000Y-83820000D01*
X110490000Y-82550000D02*
X118110000Y-82550000D01*
X109220000Y-83820000D02*
X116840000Y-83820000D01*
X107950000Y-85090000D02*
X109220000Y-83820000D01*
X116001801Y-120218199D02*
X116840000Y-119380000D01*
X111810799Y-124409201D02*
X116001801Y-120218199D01*
X109989233Y-124409201D02*
X111810799Y-124409201D01*
X109169201Y-125229233D02*
X109989233Y-124409201D01*
X109169201Y-127050799D02*
X109169201Y-125229233D01*
X107950000Y-128270000D02*
X109169201Y-127050799D01*
X118160799Y-120599201D02*
X118541801Y-120218199D01*
X115620799Y-123139201D02*
X117425217Y-123139201D01*
X118541801Y-120218199D02*
X119380000Y-119380000D01*
X118160799Y-122403619D02*
X118160799Y-120599201D01*
X117425217Y-123139201D02*
X118160799Y-122403619D01*
X110490000Y-128270000D02*
X115620799Y-123139201D01*
X118541801Y-117678199D02*
X119380000Y-116840000D01*
X118160799Y-118059201D02*
X118541801Y-117678199D01*
X118160799Y-119863619D02*
X118160799Y-118059201D01*
X117425217Y-120599201D02*
X118160799Y-119863619D01*
X111225582Y-125730000D02*
X116356381Y-120599201D01*
X116356381Y-120599201D02*
X117425217Y-120599201D01*
X110490000Y-125730000D02*
X111225582Y-125730000D01*
X116001801Y-117678199D02*
X116840000Y-116840000D01*
X111810799Y-121869201D02*
X116001801Y-117678199D01*
X109989233Y-121869201D02*
X111810799Y-121869201D01*
X109169201Y-122689233D02*
X109989233Y-121869201D01*
X109169201Y-124510799D02*
X109169201Y-122689233D01*
X107950000Y-125730000D02*
X109169201Y-124510799D01*
X118541801Y-115138199D02*
X119380000Y-114300000D01*
X118160799Y-115519201D02*
X118541801Y-115138199D01*
X118160799Y-117323619D02*
X118160799Y-115519201D01*
X117425217Y-118059201D02*
X118160799Y-117323619D01*
X116339233Y-118059201D02*
X117425217Y-118059201D01*
X111208434Y-123190000D02*
X116339233Y-118059201D01*
X110490000Y-123190000D02*
X111208434Y-123190000D01*
X118541801Y-112598199D02*
X119380000Y-111760000D01*
X118160799Y-112979201D02*
X118541801Y-112598199D01*
X116339233Y-112979201D02*
X118160799Y-112979201D01*
X112021224Y-117297210D02*
X116339233Y-112979201D01*
X112021224Y-119118776D02*
X112021224Y-117297210D01*
X110490000Y-120650000D02*
X112021224Y-119118776D01*
X107950000Y-123190000D02*
X109220000Y-121920000D01*
X116001801Y-112598199D02*
X116840000Y-111760000D01*
X111810799Y-116789201D02*
X116001801Y-112598199D01*
X110006381Y-116789201D02*
X111810799Y-116789201D01*
X109220000Y-117575582D02*
X110006381Y-116789201D01*
X109220000Y-121920000D02*
X109220000Y-117575582D01*
G36*
X110683747Y-115584142D02*
X110504142Y-115763747D01*
X110490000Y-115749605D01*
X110475857Y-115763747D01*
X110296252Y-115584142D01*
X110310395Y-115570000D01*
X110296252Y-115555857D01*
X110475857Y-115376252D01*
X110490000Y-115390395D01*
X110504142Y-115376252D01*
X110683747Y-115555857D01*
X110669605Y-115570000D01*
X110683747Y-115584142D01*
X110683747Y-115584142D01*
G37*
X110683747Y-115584142D02*
X110504142Y-115763747D01*
X110490000Y-115749605D01*
X110475857Y-115763747D01*
X110296252Y-115584142D01*
X110310395Y-115570000D01*
X110296252Y-115555857D01*
X110475857Y-115376252D01*
X110490000Y-115390395D01*
X110504142Y-115376252D01*
X110683747Y-115555857D01*
X110669605Y-115570000D01*
X110683747Y-115584142D01*
G36*
X119573747Y-81294142D02*
X119394142Y-81473747D01*
X119380000Y-81459605D01*
X119365857Y-81473747D01*
X119186252Y-81294142D01*
X119200395Y-81280000D01*
X118344587Y-80424192D01*
X118110000Y-80498134D01*
X117875413Y-80424192D01*
X117019605Y-81280000D01*
X117033747Y-81294142D01*
X116854142Y-81473747D01*
X116840000Y-81459605D01*
X116825857Y-81473747D01*
X116646252Y-81294142D01*
X116660395Y-81280000D01*
X115804587Y-80424192D01*
X115554510Y-80503017D01*
X115355023Y-81054097D01*
X115381611Y-81639569D01*
X115443093Y-81788000D01*
X111769153Y-81788000D01*
X111739647Y-81716589D01*
X111325591Y-81301810D01*
X111273608Y-81280224D01*
X111323411Y-81259647D01*
X111738190Y-80845591D01*
X111962944Y-80304323D01*
X111963455Y-79718248D01*
X111874103Y-79502000D01*
X115354360Y-79502000D01*
X115354360Y-79578200D01*
X115401337Y-79820323D01*
X115541127Y-80033127D01*
X115752160Y-80175577D01*
X115990855Y-80223445D01*
X115984192Y-80244587D01*
X116840000Y-81100395D01*
X117695808Y-80244587D01*
X117689165Y-80223512D01*
X117920323Y-80178663D01*
X118133127Y-80038873D01*
X118275577Y-79827840D01*
X118293771Y-79737114D01*
X118544409Y-79988190D01*
X118597995Y-80010441D01*
X118524192Y-80244587D01*
X119380000Y-81100395D01*
X119394142Y-81086252D01*
X119573747Y-81265857D01*
X119559605Y-81280000D01*
X119573747Y-81294142D01*
X119573747Y-81294142D01*
G37*
X119573747Y-81294142D02*
X119394142Y-81473747D01*
X119380000Y-81459605D01*
X119365857Y-81473747D01*
X119186252Y-81294142D01*
X119200395Y-81280000D01*
X118344587Y-80424192D01*
X118110000Y-80498134D01*
X117875413Y-80424192D01*
X117019605Y-81280000D01*
X117033747Y-81294142D01*
X116854142Y-81473747D01*
X116840000Y-81459605D01*
X116825857Y-81473747D01*
X116646252Y-81294142D01*
X116660395Y-81280000D01*
X115804587Y-80424192D01*
X115554510Y-80503017D01*
X115355023Y-81054097D01*
X115381611Y-81639569D01*
X115443093Y-81788000D01*
X111769153Y-81788000D01*
X111739647Y-81716589D01*
X111325591Y-81301810D01*
X111273608Y-81280224D01*
X111323411Y-81259647D01*
X111738190Y-80845591D01*
X111962944Y-80304323D01*
X111963455Y-79718248D01*
X111874103Y-79502000D01*
X115354360Y-79502000D01*
X115354360Y-79578200D01*
X115401337Y-79820323D01*
X115541127Y-80033127D01*
X115752160Y-80175577D01*
X115990855Y-80223445D01*
X115984192Y-80244587D01*
X116840000Y-81100395D01*
X117695808Y-80244587D01*
X117689165Y-80223512D01*
X117920323Y-80178663D01*
X118133127Y-80038873D01*
X118275577Y-79827840D01*
X118293771Y-79737114D01*
X118544409Y-79988190D01*
X118597995Y-80010441D01*
X118524192Y-80244587D01*
X119380000Y-81100395D01*
X119394142Y-81086252D01*
X119573747Y-81265857D01*
X119559605Y-81280000D01*
X119573747Y-81294142D01*
G36*
X119888000Y-105094369D02*
X119745682Y-105236686D01*
X119674323Y-105207056D01*
X119088248Y-105206545D01*
X118546589Y-105430353D01*
X118294613Y-105681888D01*
X118278663Y-105599677D01*
X118138873Y-105386873D01*
X117927840Y-105244423D01*
X117678200Y-105194360D01*
X116001800Y-105194360D01*
X115759677Y-105241337D01*
X115546873Y-105381127D01*
X115404423Y-105592160D01*
X115354360Y-105841800D01*
X115354360Y-106044047D01*
X115208984Y-106141185D01*
X113761185Y-107588985D01*
X113596004Y-107836195D01*
X113538000Y-108127800D01*
X113538000Y-110708788D01*
X111830446Y-112416341D01*
X111739647Y-112196589D01*
X111325591Y-111781810D01*
X111273608Y-111760224D01*
X111323411Y-111739647D01*
X111738190Y-111325591D01*
X111962944Y-110784323D01*
X111963455Y-110198248D01*
X111739647Y-109656589D01*
X111325591Y-109241810D01*
X111273608Y-109220224D01*
X111323411Y-109199647D01*
X111738190Y-108785591D01*
X111962944Y-108244323D01*
X111963455Y-107658248D01*
X111739647Y-107116589D01*
X111325591Y-106701810D01*
X111273608Y-106680224D01*
X111323411Y-106659647D01*
X111738190Y-106245591D01*
X111962944Y-105704323D01*
X111963455Y-105118248D01*
X111739647Y-104576589D01*
X111325591Y-104161810D01*
X111273608Y-104140224D01*
X111323411Y-104119647D01*
X111738190Y-103705591D01*
X111962944Y-103164323D01*
X111963455Y-102578248D01*
X111739647Y-102036589D01*
X111325591Y-101621810D01*
X111273608Y-101600224D01*
X111323411Y-101579647D01*
X111738190Y-101165591D01*
X111962944Y-100624323D01*
X111963455Y-100038248D01*
X111739647Y-99496589D01*
X111325591Y-99081810D01*
X111273608Y-99060224D01*
X111323411Y-99039647D01*
X111738190Y-98625591D01*
X111962944Y-98084323D01*
X111963455Y-97498248D01*
X111739647Y-96956589D01*
X111325591Y-96541810D01*
X111273608Y-96520224D01*
X111323411Y-96499647D01*
X111738190Y-96085591D01*
X111962944Y-95544323D01*
X111963455Y-94958248D01*
X111739647Y-94416589D01*
X111325591Y-94001810D01*
X111272004Y-93979558D01*
X111345808Y-93745413D01*
X110490000Y-92889605D01*
X109634192Y-93745413D01*
X109707870Y-93979163D01*
X109656589Y-94000353D01*
X109241810Y-94414409D01*
X109220224Y-94466391D01*
X109199647Y-94416589D01*
X108785591Y-94001810D01*
X108733608Y-93980224D01*
X108783411Y-93959647D01*
X109198190Y-93545591D01*
X109220441Y-93492004D01*
X109454587Y-93565808D01*
X110310395Y-92710000D01*
X110296252Y-92695857D01*
X110475857Y-92516252D01*
X110490000Y-92530395D01*
X110504142Y-92516252D01*
X110683747Y-92695857D01*
X110669605Y-92710000D01*
X111525413Y-93565808D01*
X111775490Y-93486983D01*
X111974977Y-92935903D01*
X111948389Y-92350431D01*
X111886906Y-92202000D01*
X115560846Y-92202000D01*
X115590353Y-92273411D01*
X116004409Y-92688190D01*
X116056391Y-92709775D01*
X116006589Y-92730353D01*
X115591810Y-93144409D01*
X115367056Y-93685677D01*
X115366545Y-94271752D01*
X115590353Y-94813411D01*
X116004409Y-95228190D01*
X116056391Y-95249775D01*
X116006589Y-95270353D01*
X115591810Y-95684409D01*
X115367056Y-96225677D01*
X115366545Y-96811752D01*
X115590353Y-97353411D01*
X116004409Y-97768190D01*
X116056391Y-97789775D01*
X116006589Y-97810353D01*
X115591810Y-98224409D01*
X115367056Y-98765677D01*
X115366545Y-99351752D01*
X115590353Y-99893411D01*
X116004409Y-100308190D01*
X116056391Y-100329775D01*
X116006589Y-100350353D01*
X115591810Y-100764409D01*
X115367056Y-101305677D01*
X115366545Y-101891752D01*
X115590353Y-102433411D01*
X116004409Y-102848190D01*
X116545677Y-103072944D01*
X117131752Y-103073455D01*
X117673411Y-102849647D01*
X118088190Y-102435591D01*
X118109775Y-102383608D01*
X118130353Y-102433411D01*
X118544409Y-102848190D01*
X119085677Y-103072944D01*
X119671752Y-103073455D01*
X119888000Y-102984103D01*
X119888000Y-105094369D01*
X119888000Y-105094369D01*
G37*
X119888000Y-105094369D02*
X119745682Y-105236686D01*
X119674323Y-105207056D01*
X119088248Y-105206545D01*
X118546589Y-105430353D01*
X118294613Y-105681888D01*
X118278663Y-105599677D01*
X118138873Y-105386873D01*
X117927840Y-105244423D01*
X117678200Y-105194360D01*
X116001800Y-105194360D01*
X115759677Y-105241337D01*
X115546873Y-105381127D01*
X115404423Y-105592160D01*
X115354360Y-105841800D01*
X115354360Y-106044047D01*
X115208984Y-106141185D01*
X113761185Y-107588985D01*
X113596004Y-107836195D01*
X113538000Y-108127800D01*
X113538000Y-110708788D01*
X111830446Y-112416341D01*
X111739647Y-112196589D01*
X111325591Y-111781810D01*
X111273608Y-111760224D01*
X111323411Y-111739647D01*
X111738190Y-111325591D01*
X111962944Y-110784323D01*
X111963455Y-110198248D01*
X111739647Y-109656589D01*
X111325591Y-109241810D01*
X111273608Y-109220224D01*
X111323411Y-109199647D01*
X111738190Y-108785591D01*
X111962944Y-108244323D01*
X111963455Y-107658248D01*
X111739647Y-107116589D01*
X111325591Y-106701810D01*
X111273608Y-106680224D01*
X111323411Y-106659647D01*
X111738190Y-106245591D01*
X111962944Y-105704323D01*
X111963455Y-105118248D01*
X111739647Y-104576589D01*
X111325591Y-104161810D01*
X111273608Y-104140224D01*
X111323411Y-104119647D01*
X111738190Y-103705591D01*
X111962944Y-103164323D01*
X111963455Y-102578248D01*
X111739647Y-102036589D01*
X111325591Y-101621810D01*
X111273608Y-101600224D01*
X111323411Y-101579647D01*
X111738190Y-101165591D01*
X111962944Y-100624323D01*
X111963455Y-100038248D01*
X111739647Y-99496589D01*
X111325591Y-99081810D01*
X111273608Y-99060224D01*
X111323411Y-99039647D01*
X111738190Y-98625591D01*
X111962944Y-98084323D01*
X111963455Y-97498248D01*
X111739647Y-96956589D01*
X111325591Y-96541810D01*
X111273608Y-96520224D01*
X111323411Y-96499647D01*
X111738190Y-96085591D01*
X111962944Y-95544323D01*
X111963455Y-94958248D01*
X111739647Y-94416589D01*
X111325591Y-94001810D01*
X111272004Y-93979558D01*
X111345808Y-93745413D01*
X110490000Y-92889605D01*
X109634192Y-93745413D01*
X109707870Y-93979163D01*
X109656589Y-94000353D01*
X109241810Y-94414409D01*
X109220224Y-94466391D01*
X109199647Y-94416589D01*
X108785591Y-94001810D01*
X108733608Y-93980224D01*
X108783411Y-93959647D01*
X109198190Y-93545591D01*
X109220441Y-93492004D01*
X109454587Y-93565808D01*
X110310395Y-92710000D01*
X110296252Y-92695857D01*
X110475857Y-92516252D01*
X110490000Y-92530395D01*
X110504142Y-92516252D01*
X110683747Y-92695857D01*
X110669605Y-92710000D01*
X111525413Y-93565808D01*
X111775490Y-93486983D01*
X111974977Y-92935903D01*
X111948389Y-92350431D01*
X111886906Y-92202000D01*
X115560846Y-92202000D01*
X115590353Y-92273411D01*
X116004409Y-92688190D01*
X116056391Y-92709775D01*
X116006589Y-92730353D01*
X115591810Y-93144409D01*
X115367056Y-93685677D01*
X115366545Y-94271752D01*
X115590353Y-94813411D01*
X116004409Y-95228190D01*
X116056391Y-95249775D01*
X116006589Y-95270353D01*
X115591810Y-95684409D01*
X115367056Y-96225677D01*
X115366545Y-96811752D01*
X115590353Y-97353411D01*
X116004409Y-97768190D01*
X116056391Y-97789775D01*
X116006589Y-97810353D01*
X115591810Y-98224409D01*
X115367056Y-98765677D01*
X115366545Y-99351752D01*
X115590353Y-99893411D01*
X116004409Y-100308190D01*
X116056391Y-100329775D01*
X116006589Y-100350353D01*
X115591810Y-100764409D01*
X115367056Y-101305677D01*
X115366545Y-101891752D01*
X115590353Y-102433411D01*
X116004409Y-102848190D01*
X116545677Y-103072944D01*
X117131752Y-103073455D01*
X117673411Y-102849647D01*
X118088190Y-102435591D01*
X118109775Y-102383608D01*
X118130353Y-102433411D01*
X118544409Y-102848190D01*
X119085677Y-103072944D01*
X119671752Y-103073455D01*
X119888000Y-102984103D01*
X119888000Y-105094369D01*
G36*
X123063000Y-131395000D02*
X120864977Y-131395000D01*
X120864977Y-109445903D01*
X120838389Y-108860431D01*
X120665490Y-108443017D01*
X120415413Y-108364192D01*
X119559605Y-109220000D01*
X120415413Y-110075808D01*
X120665490Y-109996983D01*
X120864977Y-109445903D01*
X120864977Y-131395000D01*
X104267000Y-131395000D01*
X104267000Y-76885000D01*
X117640304Y-76885000D01*
X117571184Y-76931185D01*
X117248009Y-77254360D01*
X116001800Y-77254360D01*
X115759677Y-77301337D01*
X115546873Y-77441127D01*
X115404423Y-77652160D01*
X115354360Y-77901800D01*
X115354360Y-77978000D01*
X106857798Y-77978000D01*
X106566193Y-78036004D01*
X106318982Y-78201185D01*
X106141185Y-78378983D01*
X105976004Y-78626193D01*
X105918000Y-78917798D01*
X105918000Y-114300000D01*
X105976004Y-114591605D01*
X106141185Y-114838815D01*
X106506687Y-115204317D01*
X106477056Y-115275677D01*
X106476545Y-115861752D01*
X106700353Y-116403411D01*
X107114409Y-116818190D01*
X107166391Y-116839775D01*
X107116589Y-116860353D01*
X106701810Y-117274409D01*
X106477056Y-117815677D01*
X106476545Y-118401752D01*
X106700353Y-118943411D01*
X107114409Y-119358190D01*
X107166391Y-119379775D01*
X107116589Y-119400353D01*
X106701810Y-119814409D01*
X106477056Y-120355677D01*
X106476545Y-120941752D01*
X106700353Y-121483411D01*
X107114409Y-121898190D01*
X107166391Y-121919775D01*
X107116589Y-121940353D01*
X106701810Y-122354409D01*
X106477056Y-122895677D01*
X106476545Y-123481752D01*
X106700353Y-124023411D01*
X107114409Y-124438190D01*
X107166391Y-124459775D01*
X107116589Y-124480353D01*
X106701810Y-124894409D01*
X106477056Y-125435677D01*
X106476545Y-126021752D01*
X106700353Y-126563411D01*
X107114409Y-126978190D01*
X107166391Y-126999775D01*
X107116589Y-127020353D01*
X106701810Y-127434409D01*
X106477056Y-127975677D01*
X106476545Y-128561752D01*
X106700353Y-129103411D01*
X107114409Y-129518190D01*
X107655677Y-129742944D01*
X108241752Y-129743455D01*
X108783411Y-129519647D01*
X109198190Y-129105591D01*
X109219775Y-129053608D01*
X109240353Y-129103411D01*
X109654409Y-129518190D01*
X110195677Y-129742944D01*
X110781752Y-129743455D01*
X111323411Y-129519647D01*
X111738190Y-129105591D01*
X111962944Y-128564323D01*
X111963455Y-127978248D01*
X111933026Y-127904604D01*
X115366789Y-124470840D01*
X115366545Y-124751752D01*
X115590353Y-125293411D01*
X116004409Y-125708190D01*
X116056391Y-125729775D01*
X116006589Y-125750353D01*
X115591810Y-126164409D01*
X115367056Y-126705677D01*
X115366545Y-127291752D01*
X115590353Y-127833411D01*
X116004409Y-128248190D01*
X116056391Y-128269775D01*
X116006589Y-128290353D01*
X115591810Y-128704409D01*
X115367056Y-129245677D01*
X115366545Y-129831752D01*
X115590353Y-130373411D01*
X116004409Y-130788190D01*
X116545677Y-131012944D01*
X117131752Y-131013455D01*
X117673411Y-130789647D01*
X118088190Y-130375591D01*
X118109775Y-130323608D01*
X118130353Y-130373411D01*
X118544409Y-130788190D01*
X119085677Y-131012944D01*
X119671752Y-131013455D01*
X120213411Y-130789647D01*
X120628190Y-130375591D01*
X120852944Y-129834323D01*
X120853455Y-129248248D01*
X120629647Y-128706589D01*
X120215591Y-128291810D01*
X120163608Y-128270224D01*
X120213411Y-128249647D01*
X120628190Y-127835591D01*
X120852944Y-127294323D01*
X120853455Y-126708248D01*
X120629647Y-126166589D01*
X120215591Y-125751810D01*
X120163608Y-125730224D01*
X120213411Y-125709647D01*
X120628190Y-125295591D01*
X120852944Y-124754323D01*
X120853455Y-124168248D01*
X120629647Y-123626589D01*
X120215591Y-123211810D01*
X120163608Y-123190224D01*
X120213411Y-123169647D01*
X120628190Y-122755591D01*
X120852944Y-122214323D01*
X120853455Y-121628248D01*
X120629647Y-121086589D01*
X120215591Y-120671810D01*
X120163608Y-120650224D01*
X120213411Y-120629647D01*
X120628190Y-120215591D01*
X120852944Y-119674323D01*
X120853455Y-119088248D01*
X120629647Y-118546589D01*
X120215591Y-118131810D01*
X120163608Y-118110224D01*
X120213411Y-118089647D01*
X120628190Y-117675591D01*
X120852944Y-117134323D01*
X120853455Y-116548248D01*
X120629647Y-116006589D01*
X120215591Y-115591810D01*
X120163608Y-115570224D01*
X120213411Y-115549647D01*
X120628190Y-115135591D01*
X120852944Y-114594323D01*
X120853455Y-114008248D01*
X120629647Y-113466589D01*
X120215591Y-113051810D01*
X120163608Y-113030224D01*
X120213411Y-113009647D01*
X120628190Y-112595591D01*
X120852944Y-112054323D01*
X120853455Y-111468248D01*
X120629647Y-110926589D01*
X120215591Y-110511810D01*
X120162004Y-110489558D01*
X120235808Y-110255413D01*
X119380000Y-109399605D01*
X119200395Y-109579210D01*
X119200395Y-109220000D01*
X118344587Y-108364192D01*
X118110000Y-108438134D01*
X117875413Y-108364192D01*
X117019605Y-109220000D01*
X117875413Y-110075808D01*
X118110000Y-110001865D01*
X118344587Y-110075808D01*
X119200395Y-109220000D01*
X119200395Y-109579210D01*
X118524192Y-110255413D01*
X118597870Y-110489163D01*
X118546589Y-110510353D01*
X118131810Y-110924409D01*
X118110224Y-110976391D01*
X118089647Y-110926589D01*
X117675591Y-110511810D01*
X117622004Y-110489558D01*
X117695808Y-110255413D01*
X116840000Y-109399605D01*
X116660395Y-109579210D01*
X116660395Y-109220000D01*
X115804587Y-108364192D01*
X115554510Y-108443017D01*
X115355023Y-108994097D01*
X115381611Y-109579569D01*
X115554510Y-109996983D01*
X115804587Y-110075808D01*
X116660395Y-109220000D01*
X116660395Y-109579210D01*
X115984192Y-110255413D01*
X116057870Y-110489163D01*
X116006589Y-110510353D01*
X115591810Y-110924409D01*
X115367056Y-111465677D01*
X115366545Y-112051752D01*
X115396973Y-112125396D01*
X111964181Y-115558188D01*
X111948389Y-115210431D01*
X111775490Y-114793017D01*
X111648924Y-114753123D01*
X114838815Y-111563233D01*
X115003996Y-111316023D01*
X115061999Y-111024418D01*
X115062000Y-111024418D01*
X115062000Y-108443430D01*
X115537628Y-107967801D01*
X115541127Y-107973127D01*
X115752160Y-108115577D01*
X115990855Y-108163445D01*
X115984192Y-108184587D01*
X116840000Y-109040395D01*
X117695808Y-108184587D01*
X117689165Y-108163512D01*
X117920323Y-108118663D01*
X118133127Y-107978873D01*
X118275577Y-107767840D01*
X118293771Y-107677114D01*
X118544409Y-107928190D01*
X118597995Y-107950441D01*
X118524192Y-108184587D01*
X119380000Y-109040395D01*
X120235808Y-108184587D01*
X120162129Y-107950836D01*
X120213411Y-107929647D01*
X120628190Y-107515591D01*
X120852944Y-106974323D01*
X120853455Y-106388248D01*
X120823026Y-106314604D01*
X121188815Y-105948816D01*
X121188815Y-105948815D01*
X121353996Y-105701605D01*
X121411999Y-105410000D01*
X121412000Y-105410000D01*
X121412000Y-77470000D01*
X121353996Y-77178395D01*
X121188815Y-76931185D01*
X121119694Y-76885000D01*
X123063000Y-76885000D01*
X123063000Y-131395000D01*
X123063000Y-131395000D01*
G37*
X123063000Y-131395000D02*
X120864977Y-131395000D01*
X120864977Y-109445903D01*
X120838389Y-108860431D01*
X120665490Y-108443017D01*
X120415413Y-108364192D01*
X119559605Y-109220000D01*
X120415413Y-110075808D01*
X120665490Y-109996983D01*
X120864977Y-109445903D01*
X120864977Y-131395000D01*
X104267000Y-131395000D01*
X104267000Y-76885000D01*
X117640304Y-76885000D01*
X117571184Y-76931185D01*
X117248009Y-77254360D01*
X116001800Y-77254360D01*
X115759677Y-77301337D01*
X115546873Y-77441127D01*
X115404423Y-77652160D01*
X115354360Y-77901800D01*
X115354360Y-77978000D01*
X106857798Y-77978000D01*
X106566193Y-78036004D01*
X106318982Y-78201185D01*
X106141185Y-78378983D01*
X105976004Y-78626193D01*
X105918000Y-78917798D01*
X105918000Y-114300000D01*
X105976004Y-114591605D01*
X106141185Y-114838815D01*
X106506687Y-115204317D01*
X106477056Y-115275677D01*
X106476545Y-115861752D01*
X106700353Y-116403411D01*
X107114409Y-116818190D01*
X107166391Y-116839775D01*
X107116589Y-116860353D01*
X106701810Y-117274409D01*
X106477056Y-117815677D01*
X106476545Y-118401752D01*
X106700353Y-118943411D01*
X107114409Y-119358190D01*
X107166391Y-119379775D01*
X107116589Y-119400353D01*
X106701810Y-119814409D01*
X106477056Y-120355677D01*
X106476545Y-120941752D01*
X106700353Y-121483411D01*
X107114409Y-121898190D01*
X107166391Y-121919775D01*
X107116589Y-121940353D01*
X106701810Y-122354409D01*
X106477056Y-122895677D01*
X106476545Y-123481752D01*
X106700353Y-124023411D01*
X107114409Y-124438190D01*
X107166391Y-124459775D01*
X107116589Y-124480353D01*
X106701810Y-124894409D01*
X106477056Y-125435677D01*
X106476545Y-126021752D01*
X106700353Y-126563411D01*
X107114409Y-126978190D01*
X107166391Y-126999775D01*
X107116589Y-127020353D01*
X106701810Y-127434409D01*
X106477056Y-127975677D01*
X106476545Y-128561752D01*
X106700353Y-129103411D01*
X107114409Y-129518190D01*
X107655677Y-129742944D01*
X108241752Y-129743455D01*
X108783411Y-129519647D01*
X109198190Y-129105591D01*
X109219775Y-129053608D01*
X109240353Y-129103411D01*
X109654409Y-129518190D01*
X110195677Y-129742944D01*
X110781752Y-129743455D01*
X111323411Y-129519647D01*
X111738190Y-129105591D01*
X111962944Y-128564323D01*
X111963455Y-127978248D01*
X111933026Y-127904604D01*
X115366789Y-124470840D01*
X115366545Y-124751752D01*
X115590353Y-125293411D01*
X116004409Y-125708190D01*
X116056391Y-125729775D01*
X116006589Y-125750353D01*
X115591810Y-126164409D01*
X115367056Y-126705677D01*
X115366545Y-127291752D01*
X115590353Y-127833411D01*
X116004409Y-128248190D01*
X116056391Y-128269775D01*
X116006589Y-128290353D01*
X115591810Y-128704409D01*
X115367056Y-129245677D01*
X115366545Y-129831752D01*
X115590353Y-130373411D01*
X116004409Y-130788190D01*
X116545677Y-131012944D01*
X117131752Y-131013455D01*
X117673411Y-130789647D01*
X118088190Y-130375591D01*
X118109775Y-130323608D01*
X118130353Y-130373411D01*
X118544409Y-130788190D01*
X119085677Y-131012944D01*
X119671752Y-131013455D01*
X120213411Y-130789647D01*
X120628190Y-130375591D01*
X120852944Y-129834323D01*
X120853455Y-129248248D01*
X120629647Y-128706589D01*
X120215591Y-128291810D01*
X120163608Y-128270224D01*
X120213411Y-128249647D01*
X120628190Y-127835591D01*
X120852944Y-127294323D01*
X120853455Y-126708248D01*
X120629647Y-126166589D01*
X120215591Y-125751810D01*
X120163608Y-125730224D01*
X120213411Y-125709647D01*
X120628190Y-125295591D01*
X120852944Y-124754323D01*
X120853455Y-124168248D01*
X120629647Y-123626589D01*
X120215591Y-123211810D01*
X120163608Y-123190224D01*
X120213411Y-123169647D01*
X120628190Y-122755591D01*
X120852944Y-122214323D01*
X120853455Y-121628248D01*
X120629647Y-121086589D01*
X120215591Y-120671810D01*
X120163608Y-120650224D01*
X120213411Y-120629647D01*
X120628190Y-120215591D01*
X120852944Y-119674323D01*
X120853455Y-119088248D01*
X120629647Y-118546589D01*
X120215591Y-118131810D01*
X120163608Y-118110224D01*
X120213411Y-118089647D01*
X120628190Y-117675591D01*
X120852944Y-117134323D01*
X120853455Y-116548248D01*
X120629647Y-116006589D01*
X120215591Y-115591810D01*
X120163608Y-115570224D01*
X120213411Y-115549647D01*
X120628190Y-115135591D01*
X120852944Y-114594323D01*
X120853455Y-114008248D01*
X120629647Y-113466589D01*
X120215591Y-113051810D01*
X120163608Y-113030224D01*
X120213411Y-113009647D01*
X120628190Y-112595591D01*
X120852944Y-112054323D01*
X120853455Y-111468248D01*
X120629647Y-110926589D01*
X120215591Y-110511810D01*
X120162004Y-110489558D01*
X120235808Y-110255413D01*
X119380000Y-109399605D01*
X119200395Y-109579210D01*
X119200395Y-109220000D01*
X118344587Y-108364192D01*
X118110000Y-108438134D01*
X117875413Y-108364192D01*
X117019605Y-109220000D01*
X117875413Y-110075808D01*
X118110000Y-110001865D01*
X118344587Y-110075808D01*
X119200395Y-109220000D01*
X119200395Y-109579210D01*
X118524192Y-110255413D01*
X118597870Y-110489163D01*
X118546589Y-110510353D01*
X118131810Y-110924409D01*
X118110224Y-110976391D01*
X118089647Y-110926589D01*
X117675591Y-110511810D01*
X117622004Y-110489558D01*
X117695808Y-110255413D01*
X116840000Y-109399605D01*
X116660395Y-109579210D01*
X116660395Y-109220000D01*
X115804587Y-108364192D01*
X115554510Y-108443017D01*
X115355023Y-108994097D01*
X115381611Y-109579569D01*
X115554510Y-109996983D01*
X115804587Y-110075808D01*
X116660395Y-109220000D01*
X116660395Y-109579210D01*
X115984192Y-110255413D01*
X116057870Y-110489163D01*
X116006589Y-110510353D01*
X115591810Y-110924409D01*
X115367056Y-111465677D01*
X115366545Y-112051752D01*
X115396973Y-112125396D01*
X111964181Y-115558188D01*
X111948389Y-115210431D01*
X111775490Y-114793017D01*
X111648924Y-114753123D01*
X114838815Y-111563233D01*
X115003996Y-111316023D01*
X115061999Y-111024418D01*
X115062000Y-111024418D01*
X115062000Y-108443430D01*
X115537628Y-107967801D01*
X115541127Y-107973127D01*
X115752160Y-108115577D01*
X115990855Y-108163445D01*
X115984192Y-108184587D01*
X116840000Y-109040395D01*
X117695808Y-108184587D01*
X117689165Y-108163512D01*
X117920323Y-108118663D01*
X118133127Y-107978873D01*
X118275577Y-107767840D01*
X118293771Y-107677114D01*
X118544409Y-107928190D01*
X118597995Y-107950441D01*
X118524192Y-108184587D01*
X119380000Y-109040395D01*
X120235808Y-108184587D01*
X120162129Y-107950836D01*
X120213411Y-107929647D01*
X120628190Y-107515591D01*
X120852944Y-106974323D01*
X120853455Y-106388248D01*
X120823026Y-106314604D01*
X121188815Y-105948816D01*
X121188815Y-105948815D01*
X121353996Y-105701605D01*
X121411999Y-105410000D01*
X121412000Y-105410000D01*
X121412000Y-77470000D01*
X121353996Y-77178395D01*
X121188815Y-76931185D01*
X121119694Y-76885000D01*
X123063000Y-76885000D01*
X123063000Y-131395000D01*
M02*
